<svg width="473" height="473" viewBox="0 0 473 473" fill="none" xmlns="http://www.w3.org/2000/svg">
<path d="M472.2 0.804199H0.84021V472.164H472.2V0.804199Z" fill="#D192FE"/>
<path d="M448.312 24.6919H24.7278V448.276H448.312V24.6919Z" fill="#1F0041"/>
<path d="M214.595 278.708H146.969L129.586 324.128H94.7084L165.698 145.476H195.642L266.52 324.128H231.978L214.595 278.708ZM180.502 188.428C174.109 207.045 168.502 222.634 163.567 235.194L157.511 251.344H204.053L197.997 235.306C193.062 222.634 187.455 207.045 181.063 188.428H180.502ZM354.668 302.035C361.106 301.989 367.525 301.351 373.846 300.128C380.735 298.885 387.521 297.123 394.144 294.857V319.979C390.107 321.773 383.827 323.455 375.303 325.025C366.659 326.711 357.868 327.537 349.061 327.492C340.226 327.519 331.431 326.311 322.93 323.904C314.986 321.667 307.608 317.768 301.286 312.464C294.919 306.85 289.897 299.874 286.594 292.053C283.005 283.642 281.211 273.549 281.211 261.549C281.211 249.886 282.893 239.568 286.37 230.708C289.34 222.562 293.959 215.117 299.94 208.839C305.509 203.189 312.192 198.758 319.566 195.83C326.804 192.928 334.533 191.443 342.332 191.456C350.087 191.361 357.797 192.653 365.098 195.27C371.906 197.641 378.029 201.646 382.93 206.933C388.088 212.316 391.902 219.157 394.705 227.456C397.509 235.979 398.967 245.848 398.967 257.287C398.855 261.773 398.742 265.474 398.518 268.615H313.622C313.959 273.985 315.33 279.24 317.659 284.091C319.789 288.126 322.775 291.647 326.407 294.409C330.183 297.113 334.449 299.055 338.967 300.128C344.102 301.41 349.376 302.05 354.668 302.035V302.035ZM341.995 216.129C338.294 216.042 334.619 216.77 331.229 218.26C328.196 219.778 325.461 221.829 323.154 224.316C320.871 226.943 319.051 229.939 317.771 233.176C316.442 236.681 315.538 240.333 315.08 244.054H365.995C366.065 240.367 365.534 236.693 364.425 233.176C363.503 229.965 361.981 226.959 359.939 224.316C357.91 221.769 355.345 219.701 352.425 218.26C349.162 216.747 345.591 216.017 341.995 216.129V216.129Z" fill="#D192FE"/>
</svg>
