<svg width="472" height="472" viewBox="0 0 472 472" fill="none" xmlns="http://www.w3.org/2000/svg">
<path d="M471.68 0.297607H0.320312V471.657H471.68V0.297607Z" fill="#FF4A1D"/>
<path d="M447.792 24.1853H24.208V447.77H447.792V24.1853Z" fill="#250701"/>
<path d="M200.842 279.883H133.104L115.833 325.303H80.9551L151.833 146.651H181.776L252.767 325.303H218.113L200.842 279.883ZM166.749 189.604C160.356 208.221 154.637 223.809 149.702 236.37L143.646 252.519H190.3L184.244 236.37C179.309 223.809 173.59 208.221 167.197 189.604H166.749ZM303.121 213.828H303.682C308.068 207.716 313.831 202.722 320.504 199.249C324.348 197.192 328.411 195.574 332.616 194.426C337.222 193.181 341.977 192.578 346.747 192.632C351.352 192.636 355.942 193.163 360.429 194.202C364.693 195.278 368.774 196.978 372.541 199.249C376.243 201.577 379.508 204.538 382.186 207.996C385.114 211.884 387.352 216.247 388.802 220.893C389.712 223.851 390.313 226.896 390.597 229.977C390.933 233.23 391.045 237.043 391.045 241.304V325.303H359.307V246.127C359.307 242.65 359.195 239.734 358.971 237.267C358.718 235.016 358.23 232.799 357.513 230.65C355.831 226.501 353.476 223.585 350.223 221.903C346.591 220.018 342.538 219.092 338.448 219.211C332.274 219.208 326.192 220.709 320.728 223.585C314.843 226.595 309.707 230.887 305.7 236.145V325.303H273.962V195.884H300.205L303.121 213.828Z" fill="#FF4A1D"/>
</svg>
