<svg width="472" height="473" viewBox="0 0 472 473" fill="none" xmlns="http://www.w3.org/2000/svg">
<path d="M471.52 0.804199H0.1604V472.164H471.52V0.804199Z" fill="#03E2BB"/>
<path d="M447.632 24.6919H24.0481V448.276H447.632V24.6919Z" fill="#001C25"/>
<path d="M204.271 278.708H142.477L126.664 324.128H94.8135L159.635 145.476H186.887L251.597 324.128H220.083L204.271 278.708ZM173.093 188.428C167.261 207.045 162.103 222.634 157.617 235.194L152.121 251.344H194.625L189.13 235.306C184.532 222.634 179.373 207.045 173.654 188.428H173.093ZM323.372 327.492C311.596 327.492 301.727 325.249 293.877 320.876C286.432 316.726 280.325 310.54 276.27 303.044C274.085 298.876 272.5 294.421 271.559 289.81C270.488 284.533 269.961 279.159 269.989 273.773V194.821H298.924V270.409C298.892 274.166 299.193 277.919 299.821 281.624C300.309 284.492 301.176 287.283 302.4 289.923C304.183 293.607 307.089 296.63 310.699 298.558C314.61 300.583 318.969 301.586 323.372 301.474C328.032 301.613 332.644 300.49 336.718 298.222C340.516 295.98 343.471 292.552 345.129 288.465C346.923 284.315 347.932 278.484 347.932 271.082V194.821H376.867V273.773C376.867 284.315 375.184 293.175 371.82 300.352C370.018 304.429 367.555 308.181 364.53 311.455C361.58 314.885 358.05 317.77 354.101 319.979C349.828 322.459 345.22 324.309 340.418 325.474C334.847 326.881 329.117 327.56 323.372 327.492V327.492Z" fill="#03E2BB"/>
</svg>
