<svg width="472" height="473" viewBox="0 0 472 473" fill="none" xmlns="http://www.w3.org/2000/svg">
<path d="M471.84 0.804199H0.480469V472.164H471.84V0.804199Z" fill="#F87D0C"/>
<path d="M447.953 24.6919H24.3682V448.276H447.953V24.6919Z" fill="#250701"/>
<path d="M242.833 287.792H175.095L157.824 333.212H122.946L193.824 154.559H223.768L294.758 333.212H260.104L242.833 287.792ZM208.628 197.512C202.347 216.129 196.628 231.718 191.694 244.278L185.637 260.428H232.291L226.235 244.278C221.301 231.605 215.581 216.017 209.188 197.512H208.628ZM316.739 203.793H348.476V333.212H316.739V203.793ZM315.954 139.756H349.374V173.961H315.954V139.756Z" fill="#F87D0C"/>
</svg>
