<svg width="472" height="473" viewBox="0 0 472 473" fill="none" xmlns="http://www.w3.org/2000/svg">
<path d="M471.68 0.804199H0.320312V472.164H471.68V0.804199Z" fill="#B5D2E4"/>
<path d="M447.792 24.6919H24.208V448.276H447.792V24.6919Z" fill="#0B2432"/>
<path d="M158.786 147.158V298.446H242.449V325.81H126.039V147.158H158.786ZM345.962 221.624H343.383C334.67 221.464 326.002 222.908 317.813 225.886C310.411 228.802 304.691 233.176 300.766 239.12V325.81H269.028V196.391H295.271L298.187 214.335H298.748C302.335 207.851 307.654 202.493 314.112 198.858C320.728 195.045 328.579 193.139 337.775 193.139C340.514 193.126 343.25 193.313 345.962 193.699V221.624Z" fill="#ADD5EC"/>
</svg>
