<svg width="473" height="472" viewBox="0 0 473 472" fill="none" xmlns="http://www.w3.org/2000/svg">
<path d="M472.2 0.297607H0.84021V471.657H472.2V0.297607Z" fill="#0BC4F8"/>
<path d="M448.312 24.1853H24.7278V447.77H448.312V24.1853Z" fill="#001C25"/>
<path d="M161.673 254.474C158.757 254.476 155.841 254.478 152.925 254.368C150.121 254.258 147.43 254.147 144.962 253.812L145.008 323.681L112.148 323.702L112.032 145.162L163.62 145.129C171.187 145.048 178.752 145.417 186.275 146.235C192.129 146.78 197.915 147.903 203.548 149.588C215.775 153.281 225.199 159.219 231.821 167.514C238.443 175.584 241.702 186.012 241.711 198.685C241.832 206.732 240.03 214.692 236.455 221.903C232.74 228.966 227.353 235.015 220.765 239.52C213.927 244.347 205.631 248.053 195.651 250.639C185.784 253.225 174.458 254.466 161.673 254.474V254.474ZM144.945 226.336C146.851 226.559 149.206 226.782 152.01 227.004C154.926 227.115 157.954 227.113 161.094 227.111C169.842 227.105 177.243 226.427 183.186 224.965C188.316 223.949 193.194 221.926 197.537 219.012C200.991 216.773 203.717 213.575 205.382 209.811C207.065 206.116 207.905 202.093 207.841 198.034C207.934 193.228 206.688 188.492 204.244 184.354C201.774 180.542 197.622 177.629 191.677 175.502C187.936 174.254 184.056 173.466 180.124 173.155C174.537 172.568 168.92 172.309 163.302 172.381L144.909 172.393L144.945 226.336ZM329.804 285.991C329.885 283.498 329.045 281.064 327.444 279.151C325.681 277.319 323.587 275.836 321.273 274.781C318.399 273.493 315.438 272.408 312.411 271.535C309.047 270.752 305.569 269.857 301.868 268.962C297.339 267.761 292.883 266.304 288.519 264.597C284.423 263.043 280.599 260.85 277.188 258.1C273.865 255.378 271.215 251.925 269.443 248.012C267.387 243.354 266.388 238.299 266.518 233.21C266.363 226.712 267.701 220.266 270.431 214.367C272.914 209.256 276.513 204.77 280.964 201.238C285.525 197.672 290.745 195.039 296.323 193.49C302.338 191.759 308.567 190.887 314.826 190.899C328.848 190.762 342.784 193.106 355.989 197.825L356.006 223.507C353.089 222.5 349.949 221.605 346.696 220.822C343.443 220.039 340.19 219.256 336.825 218.697C333.461 218.139 330.208 217.58 326.843 217.246C323.757 216.848 320.646 216.662 317.535 216.691C314.327 216.628 311.125 216.969 308.003 217.707C305.742 218.267 303.61 219.259 301.724 220.627C300.248 221.663 299.053 223.051 298.25 224.666C297.584 226.226 297.242 227.905 297.244 229.601C297.162 232.179 297.954 234.708 299.492 236.777C301.264 238.778 303.498 240.317 305.999 241.259C308.801 242.446 311.688 243.419 314.637 244.169C317.665 244.952 320.694 245.623 323.498 246.407C328.017 247.414 332.474 248.685 336.846 250.211C341.164 251.682 345.217 253.837 348.85 256.596C352.541 259.386 355.537 262.992 357.604 267.132C359.85 271.392 360.975 276.886 360.98 283.615C360.984 290.905 359.643 297.298 356.842 302.683C354.181 308.063 350.26 312.721 345.412 316.261C340.041 320.045 333.987 322.753 327.586 324.235C320.144 326.105 312.494 327.014 304.821 326.941C297.414 326.993 290.018 326.36 282.727 325.049C277.134 324.038 271.677 322.385 266.462 320.125L266.446 294.667C272.683 297.039 279.148 298.764 285.739 299.814C291.192 300.677 296.704 301.123 302.225 301.149C305.867 301.18 309.505 300.915 313.103 300.357C316.142 299.862 319.09 298.915 321.849 297.547C324.13 296.448 326.125 294.834 327.678 292.833C329.094 290.836 329.839 288.439 329.804 285.991V285.991Z" fill="#01C8FF"/>
</svg>
