<svg width="472" height="472" viewBox="0 0 472 472" fill="none" xmlns="http://www.w3.org/2000/svg">
<path d="M471.36 0.297607H0.000244141V471.657H471.36V0.297607Z" fill="#EA77FF"/>
<path d="M447.472 24.1853H23.8879V447.77H447.472V24.1853Z" fill="#261200"/>
<path d="M160.821 254.426C157.905 254.426 154.989 254.426 152.073 254.314C149.27 254.201 146.578 254.089 144.111 253.753V323.621H111.251V145.081H162.84C170.407 145.005 177.971 145.38 185.494 146.203C191.348 146.751 197.133 147.878 202.765 149.567C214.989 153.268 224.409 159.212 231.026 167.511C237.643 175.586 240.895 186.015 240.895 198.688C241.012 206.736 239.204 214.695 235.624 221.903C231.904 228.964 226.514 235.009 219.923 239.51C213.082 244.332 204.783 248.033 194.802 250.613C184.933 253.192 173.606 254.426 160.821 254.426V254.426ZM144.111 226.277C145.905 226.501 148.373 226.725 151.176 226.949C154.092 227.062 157.12 227.062 160.26 227.062C169.008 227.062 176.41 226.389 182.354 224.931C187.485 223.918 192.364 221.898 196.708 218.987C200.164 216.75 202.892 213.554 204.559 209.791C206.245 206.097 207.088 202.075 207.026 198.015C207.122 193.21 205.879 188.473 203.437 184.333C200.97 180.52 196.821 177.604 190.877 175.473C187.136 174.222 183.257 173.431 179.326 173.118C173.738 172.527 168.121 172.265 162.503 172.333H144.111V226.277ZM348.445 219.436H345.866C336.109 219.436 327.586 220.893 320.296 223.809C312.894 226.613 307.175 230.987 303.25 236.931V323.621H271.511V194.314H297.754L300.67 212.258H301.231C304.846 205.766 310.156 200.378 316.595 196.669C323.212 192.856 331.062 190.95 340.258 190.95C342.997 190.937 345.734 191.125 348.445 191.511V219.436Z" fill="#E57BF7"/>
</svg>
